<?xml version="1.0" encoding="UTF-8"?>
<svg id="Layer_2" data-name="Layer 2" xmlns="http://www.w3.org/2000/svg" viewBox="0 0 441.45 74.8">
  <defs>
    <style>
      .cls-1 {
        fill: #ffffff;
      }
    </style>
  </defs>
  <g id="Layer_1-2" data-name="Layer 1">
    <path class="cls-1" d="M65.86,3.8v70.2h17.1V3.8h-17.1ZM61.42,30.35H0s0,17.1,0,17.1h61.42s0-17.1,0-17.1ZM22.16,74h17.1V3.8h-17.1v70.2Z"/>
    <path class="cls-1" d="M95.11,30.9c2.17-4.33,5.12-7.67,8.85-10,3.73-2.33,7.9-3.5,12.5-3.5,3.93,0,7.38.8,10.35,2.4,2.97,1.6,5.25,3.7,6.85,6.3v-7.9h17.1v55.8h-17.1v-7.9c-1.67,2.6-3.98,4.7-6.95,6.3-2.97,1.6-6.42,2.4-10.35,2.4-4.53,0-8.67-1.18-12.4-3.55-3.73-2.37-6.68-5.73-8.85-10.1-2.17-4.37-3.25-9.42-3.25-15.15s1.08-10.77,3.25-15.1ZM130.11,36c-2.26-2.36-5-3.59-8.21-3.69-2.61-.08-5.22.67-7.36,2.17-3.52,2.48-5.28,6.32-5.28,11.52,0,4.27,1.18,7.65,3.55,10.15,2.37,2.5,5.25,3.75,8.65,3.75s6.28-1.23,8.65-3.7c2.37-2.47,3.55-5.83,3.55-10.1s-1.18-7.63-3.55-10.1Z"/>
    <path class="cls-1" d="M188.25,58l12.1-39.8h18.2l-19.8,55.8h-21.1l-19.8-55.8h18.3l12.1,39.8Z"/>
    <path class="cls-1" d="M225.6,30.9c2.17-4.33,5.12-7.67,8.85-10,3.73-2.33,7.9-3.5,12.5-3.5,3.67,0,7.02.77,10.05,2.3,3.03,1.53,5.42,3.6,7.15,6.2V0h17.1v74h-17.1v-8c-1.6,2.67-3.88,4.8-6.85,6.4-2.97,1.6-6.42,2.4-10.35,2.4-4.6,0-8.77-1.18-12.5-3.55-3.73-2.37-6.68-5.73-8.85-10.1-2.17-4.37-3.25-9.42-3.25-15.15s1.08-10.77,3.25-15.1ZM260.6,36c-2.26-2.36-5-3.59-8.21-3.69-2.61-.08-5.22.67-7.36,2.17-3.52,2.48-5.28,6.32-5.28,11.52,0,4.27,1.18,7.65,3.55,10.15,2.37,2.5,5.25,3.75,8.65,3.75s6.28-1.23,8.65-3.7c2.37-2.47,3.55-5.83,3.55-10.1s-1.18-7.63-3.55-10.1Z"/>
    <path class="cls-1" d="M304.3,71.3c-4.37-2.33-7.8-5.67-10.3-10-2.5-4.33-3.75-9.4-3.75-15.2s1.27-10.78,3.8-15.15c2.53-4.37,6-7.72,10.4-10.05,4.4-2.33,9.33-3.5,14.8-3.5s10.4,1.17,14.8,3.5c4.4,2.33,7.87,5.68,10.4,10.05,2.53,4.37,3.8,9.42,3.8,15.15s-1.28,10.78-3.85,15.15c-2.57,4.37-6.07,7.72-10.5,10.05-4.43,2.33-9.38,3.5-14.85,3.5s-10.38-1.17-14.75-3.5ZM327.4,56.4c2.3-2.4,3.45-5.83,3.45-10.3s-1.12-7.9-3.35-10.3c-2.23-2.4-4.98-3.6-8.25-3.6s-6.1,1.18-8.3,3.55c-2.2,2.37-3.3,5.82-3.3,10.35s1.08,7.9,3.25,10.3c2.17,2.4,4.88,3.6,8.15,3.6s6.05-1.2,8.35-3.6Z"/>
    <path class="cls-1" d="M374.45,0v74h-17.1V0h17.1Z"/>
    <path class="cls-1" d="M397.5,71.3c-4.37-2.33-7.8-5.67-10.3-10-2.5-4.33-3.75-9.4-3.75-15.2s1.27-10.78,3.8-15.15c2.53-4.37,6-7.72,10.4-10.05,4.4-2.33,9.33-3.5,14.8-3.5s10.4,1.17,14.8,3.5c4.4,2.33,7.87,5.68,10.4,10.05,2.53,4.37,3.8,9.42,3.8,15.15s-1.28,10.78-3.85,15.15c-2.57,4.37-6.07,7.72-10.5,10.05-4.43,2.33-9.38,3.5-14.85,3.5s-10.38-1.17-14.75-3.5ZM420.6,56.4c2.3-2.4,3.45-5.83,3.45-10.3s-1.12-7.9-3.35-10.3c-2.23-2.4-4.98-3.6-8.25-3.6s-6.1,1.18-8.3,3.55c-2.2,2.37-3.3,5.82-3.3,10.35s1.08,7.9,3.25,10.3c2.17,2.4,4.88,3.6,8.15,3.6s6.05-1.2,8.35-3.6Z"/>
  </g>
</svg>
